<svg xmlns="http://www.w3.org/2000/svg" xmlns:xlink="http://www.w3.org/1999/xlink" viewBox="0 0 193 193"><defs><style>.cls-1{fill:url(#Unbenannter_Verlauf_9);}.cls-2{fill:#fff;}</style><linearGradient id="Unbenannter_Verlauf_9" x1="-0.95" y1="-0.72" x2="191.05" y2="190.83" gradientUnits="userSpaceOnUse"><stop offset="0" stop-color="#39dfa5"/><stop offset="1" stop-color="#1fbdf2"/></linearGradient></defs><g id="Ebene_2" data-name="Ebene 2"><g id="Layer_7" data-name="Layer 7"><rect class="cls-1" width="193" height="193"/><path class="cls-2" d="M47.86,116.17a10.06,10.06,0,0,1-4.16,2.55,18.14,18.14,0,0,1-6,1,10.72,10.72,0,0,1-8-3.07c-2-2-3.08-4.91-3.22-8.56v-2.22a15.28,15.28,0,0,1,1.33-6.6,9.9,9.9,0,0,1,3.83-4.34,10.8,10.8,0,0,1,5.75-1.52q4.79,0,7.43,2.19a9.26,9.26,0,0,1,3.08,6.53H41.9A4.82,4.82,0,0,0,40.53,99a4.42,4.42,0,0,0-3-.91,4,4,0,0,0-3.58,2,10.56,10.56,0,0,0-1.29,5.63v1.55A10.29,10.29,0,0,0,34,113a4.64,4.64,0,0,0,4.13,1.93,5.19,5.19,0,0,0,3.58-1.07v-4H37.4v-4.23H47.86Z"/><path class="cls-2" d="M57.42,119.33H51.48v-27h5.94Z"/><path class="cls-2" d="M60.32,109.65a11.19,11.19,0,0,1,1.11-5.07,7.87,7.87,0,0,1,3.18-3.42,9.58,9.58,0,0,1,4.87-1.2,8.75,8.75,0,0,1,6.74,2.65,10.14,10.14,0,0,1,2.46,7.2V110a9.87,9.87,0,0,1-2.47,7,8.78,8.78,0,0,1-6.69,2.61A8.87,8.87,0,0,1,63,117.25a9.52,9.52,0,0,1-2.66-6.6Zm5.93.37a7.08,7.08,0,0,0,.82,3.86,2.77,2.77,0,0,0,2.45,1.23q3.17,0,3.23-4.86v-.6q0-5.12-3.27-5.12-3,0-3.21,4.41Z"/><path class="cls-2" d="M91.24,114a1.36,1.36,0,0,0-.79-1.21,11.8,11.8,0,0,0-3-1,13.86,13.86,0,0,1-3.66-1.29,6.29,6.29,0,0,1-2.2-2,4.65,4.65,0,0,1-.75-2.62A5.26,5.26,0,0,1,83,101.66a8.91,8.91,0,0,1,5.66-1.7,9.87,9.87,0,0,1,6,1.71A5.33,5.33,0,0,1,97,106.15H91.05c0-1.52-.8-2.29-2.41-2.29a2.41,2.41,0,0,0-1.56.52,1.62,1.62,0,0,0-.63,1.29,1.47,1.47,0,0,0,.77,1.29,7.28,7.28,0,0,0,2.47.81,21.89,21.89,0,0,1,3,.75Q97,110,97,113.81a5,5,0,0,1-2.31,4.24,10.15,10.15,0,0,1-6,1.63,10.44,10.44,0,0,1-4.36-.87,7.41,7.41,0,0,1-3-2.39,5.46,5.46,0,0,1-1.07-3.19h5.54a2.28,2.28,0,0,0,.88,1.93,3.63,3.63,0,0,0,2.16.6,2.84,2.84,0,0,0,1.82-.49A1.57,1.57,0,0,0,91.24,114Z"/><path class="cls-2" d="M109.68,114a1.36,1.36,0,0,0-.79-1.21,11.8,11.8,0,0,0-3-1,13.86,13.86,0,0,1-3.66-1.29,6.29,6.29,0,0,1-2.2-2,4.65,4.65,0,0,1-.75-2.62,5.26,5.26,0,0,1,2.16-4.31,8.91,8.91,0,0,1,5.66-1.7,9.87,9.87,0,0,1,6.05,1.71,5.33,5.33,0,0,1,2.28,4.48h-5.94c0-1.52-.8-2.29-2.41-2.29a2.41,2.41,0,0,0-1.56.52,1.62,1.62,0,0,0-.63,1.29,1.47,1.47,0,0,0,.77,1.29,7.21,7.21,0,0,0,2.47.81,21.89,21.89,0,0,1,3,.75q4.29,1.49,4.29,5.29a5,5,0,0,1-2.31,4.24,10.17,10.17,0,0,1-6,1.63,10.44,10.44,0,0,1-4.36-.87,7.41,7.41,0,0,1-3-2.39,5.46,5.46,0,0,1-1.07-3.19h5.54a2.28,2.28,0,0,0,.88,1.93,3.63,3.63,0,0,0,2.16.6,2.84,2.84,0,0,0,1.82-.49A1.57,1.57,0,0,0,109.68,114Z"/><path class="cls-2" d="M128.88,119.33a6.44,6.44,0,0,1-.56-1.7,5.52,5.52,0,0,1-4.57,2.05,6.74,6.74,0,0,1-4.57-1.62A5.17,5.17,0,0,1,117.3,114a5.31,5.31,0,0,1,2.28-4.67q2.28-1.59,6.65-1.59h1.82v-1c0-1.76-.75-2.63-2.26-2.63a1.85,1.85,0,0,0-2.11,2.08h-5.93a5.31,5.31,0,0,1,2.35-4.48,9.9,9.9,0,0,1,6-1.72,8.6,8.6,0,0,1,5.75,1.78,6.13,6.13,0,0,1,2.16,4.87V115a8.74,8.74,0,0,0,.81,4v.3Zm-3.71-3.86A3.29,3.29,0,0,0,127,115a3,3,0,0,0,1-1.07v-3h-1.72c-2.06,0-3.09.92-3.09,2.78a1.69,1.69,0,0,0,.54,1.3A2,2,0,0,0,125.17,115.47Z"/><path class="cls-2" d="M148.78,105.67l-1.95-.14c-1.87,0-3.06.59-3.59,1.76v12h-5.92v-19h5.55l.2,2.45a4.57,4.57,0,0,1,4.16-2.8,5.8,5.8,0,0,1,1.65.21Z"/><path class="cls-2" d="M158.52,111l3.16-10.73H168l-7.76,22.2-.33.81A5.89,5.89,0,0,1,154.1,127a9,9,0,0,1-2.44-.35v-4.22h.77a4,4,0,0,0,1.91-.36,2.18,2.18,0,0,0,1-1.29l.47-1.27-6.61-19.21h6.33Z"/><path class="cls-2" d="M62.67,136.13a6.6,6.6,0,0,1-1.17,4.09,3.74,3.74,0,0,1-3.14,1.54,3.85,3.85,0,0,1-3.25-1.49L55,141.56H53.27V125.81h1.9v5.87a3.85,3.85,0,0,1,3.17-1.42,3.76,3.76,0,0,1,3.17,1.52A6.81,6.81,0,0,1,62.67,136Zm-1.9-.21a5.13,5.13,0,0,0-.75-3,2.49,2.49,0,0,0-2.15-1,2.79,2.79,0,0,0-2.7,1.74v4.8a2.87,2.87,0,0,0,2.72,1.74A2.44,2.44,0,0,0,60,139.09,5.39,5.39,0,0,0,60.77,135.92Z"/><path class="cls-2" d="M68.69,138.78l2.58-8.32h2l-4.46,12.81c-.69,1.84-1.79,2.77-3.29,2.77l-.36,0-.71-.14v-1.54l.51,0A2.54,2.54,0,0,0,66.5,144a2.81,2.81,0,0,0,.88-1.43l.42-1.13-3.95-11h2.07Z"/><path class="cls-2" d="M88.73,137.65H82.48l-1.41,3.91H79l5.7-14.93h1.73l5.71,14.93h-2ZM83.07,136h5.08l-2.54-7Z"/><path class="cls-2" d="M99.25,132.16a6.53,6.53,0,0,0-.93-.07,2.5,2.5,0,0,0-2.53,1.59v7.88h-1.9v-11.1h1.85l0,1.28a2.94,2.94,0,0,1,2.64-1.48,1.87,1.87,0,0,1,.84.14Z"/><path class="cls-2" d="M104.08,127.77v2.69h2.07v1.47h-2.07v6.89a1.59,1.59,0,0,0,.28,1,1.16,1.16,0,0,0,.94.33,4.83,4.83,0,0,0,.91-.12v1.53a5.82,5.82,0,0,1-1.46.2,2.37,2.37,0,0,1-1.92-.77,3.3,3.3,0,0,1-.64-2.18v-6.88h-2v-1.47h2v-2.69Z"/><path class="cls-2" d="M113,141.76a4.85,4.85,0,0,1-3.67-1.48,5.51,5.51,0,0,1-1.41-4V136a6.66,6.66,0,0,1,.63-2.95,4.92,4.92,0,0,1,1.76-2,4.45,4.45,0,0,1,2.46-.73,4.15,4.15,0,0,1,3.36,1.42,6.17,6.17,0,0,1,1.2,4.08v.79h-7.52a4,4,0,0,0,1,2.65,3,3,0,0,0,2.34,1,3.25,3.25,0,0,0,1.7-.41,4.3,4.3,0,0,0,1.22-1.08l1.16.9A4.66,4.66,0,0,1,113,141.76Zm-.23-9.95a2.52,2.52,0,0,0-1.93.84,4,4,0,0,0-1,2.34h5.55v-.14a3.56,3.56,0,0,0-.78-2.24A2.37,2.37,0,0,0,112.74,131.81Z"/><path class="cls-2" d="M124.1,141.76a4.82,4.82,0,0,1-3.67-1.48,5.48,5.48,0,0,1-1.42-4V136a6.66,6.66,0,0,1,.63-2.95,4.87,4.87,0,0,1,1.77-2,4.39,4.39,0,0,1,2.45-.73,4.17,4.17,0,0,1,3.37,1.42,6.17,6.17,0,0,1,1.2,4.08v.79h-7.52a4,4,0,0,0,1,2.65,3,3,0,0,0,2.33,1,3.22,3.22,0,0,0,1.7-.41,4.17,4.17,0,0,0,1.22-1.08l1.16.9A4.65,4.65,0,0,1,124.1,141.76Zm-.24-9.95a2.54,2.54,0,0,0-1.93.84,4.12,4.12,0,0,0-1,2.34h5.56v-.14a3.68,3.68,0,0,0-.78-2.24A2.39,2.39,0,0,0,123.86,131.81Z"/><path class="cls-2" d="M130.12,135.91a6.54,6.54,0,0,1,.64-2.94,4.68,4.68,0,0,1,4.39-2.71,4.69,4.69,0,0,1,3.67,1.57,6,6,0,0,1,1.4,4.17v.13a6.68,6.68,0,0,1-.62,2.91,4.74,4.74,0,0,1-1.78,2,4.9,4.9,0,0,1-2.65.72,4.64,4.64,0,0,1-3.65-1.57,6,6,0,0,1-1.4-4.15Zm1.9.22a4.73,4.73,0,0,0,.86,3,2.9,2.9,0,0,0,4.59,0,5.17,5.17,0,0,0,.85-3.17,4.71,4.71,0,0,0-.87-3,2.87,2.87,0,0,0-4.56,0A5.12,5.12,0,0,0,132,136.13Z"/><g id="layer1"><path id="path4" class="cls-2" d="M40.7,53.15c4.47-.1,9-1.24,13.45-1.55a57.86,57.86,0,0,1,25.72,4.27,43,43,0,0,1,9.88,5.6c1.9,1.5,3.39,3.68,5.56,4.74-1.52-4-4.6-7.21-7.92-9.81C79,49.79,67.46,47.21,56.92,47.21c-6.29,0-13.75-1.5-16.22,5.94M98.08,65.81c1.8-1.07,3.08-2.79,4.75-4.06a47.17,47.17,0,0,1,9.49-5.49,57.86,57.86,0,0,1,26.52-4.66c4.61.32,9.23,1.51,13.85,1.55-.91-1.78-2.35-4.07-4.08-5.15-3-1.87-8.76-.79-12.15-.79-9.94,0-20.45,2.17-28.88,7.65-3.94,2.56-8,6.36-9.5,11m-71.63-2c3.1-.13,6.09-1.33,9.1-2A106.59,106.59,0,0,1,49.4,59.55c12.05-1.15,25.17,1,35.62,7.23,3.26,1.94,5.65,4.79,8.7,6.94-1.45-4.39-5.46-8-9.1-10.67-11-8-25.37-8.43-38.38-7.54a82.84,82.84,0,0,0-11.08,1.6c-1.59.32-3.68.54-5,1.52-1.58,1.16-2.83,3.47-3.69,5.2m72.81,9.89c4.63-3.26,8.19-7,13.46-9.37,12.47-5.71,27.06-6,40.36-3.5,4.57.85,8.94,2.34,13.46,3.38-.64-2-2.15-4.75-4-5.88-1.27-.79-3.3-1-4.74-1.24a92,92,0,0,0-10.68-1.59c-12.54-1.1-25.72-.43-36.81,6.18-4.41,2.63-9.46,7-11.08,12M49.4,64.4c-6.92.9-13.79,1.64-20.57,3.45-1.69.45-6.76,2.86-3.44,5.07,1.18.78,3,.26,4.23,0,3-.72,6-1.41,9.1-2C48.57,69,58.88,68.14,68.79,70c5.32,1,10.93,3,15,6.6,2.07,1.83,2.75,4.52,4.57,6.54,2.42,2.69,5.91,2.92,9.29,2.84,7.16-.19,7.83-6.75,12.66-10.32,6.23-4.6,13.85-5.91,21.37-6.63,8.75-.83,18,.89,26.52,2.63,2.23.45,7.69,3,9.59,1,3.45-3.52-4.11-5-6-5.38-8.62-1.75-16.91-3.08-25.72-3.08-9.78,0-19.21,1.24-27.7,6.46a16.53,16.53,0,0,0-4.89,4.22c-2.07,2.93-3,6.52-7.38,6.29s-4.7-3.9-6.89-6.67A21.77,21.77,0,0,0,83,69.72c-7.75-4.44-16.57-5.49-25.33-5.49A64,64,0,0,0,49.4,64.4Z"/></g></g></g></svg>