<?xml version="1.0" encoding="UTF-8" standalone="no"?>
<svg
   xmlns:dc="http://purl.org/dc/elements/1.1/"
   xmlns:cc="http://creativecommons.org/ns#"
   xmlns:rdf="http://www.w3.org/1999/02/22-rdf-syntax-ns#"
   xmlns:svg="http://www.w3.org/2000/svg"
   xmlns="http://www.w3.org/2000/svg"
   xmlns:sodipodi="http://sodipodi.sourceforge.net/DTD/sodipodi-0.dtd"
   xmlns:inkscape="http://www.inkscape.org/namespaces/inkscape"
   width="371"
   height="130"
   version="1.1"
   id="svg6"
   sodipodi:docname="logo_book_inkscape.svg"
   inkscape:export-filename="/home/user/Downloads/book.png"
   inkscape:export-xdpi="129.23077"
   inkscape:export-ydpi="129.23077"
   inkscape:version="0.92.4 (unknown)">
  <metadata
     id="metadata12">
    <rdf:RDF>
      <cc:Work
         rdf:about="">
        <dc:format>image/svg+xml</dc:format>
        <dc:type
           rdf:resource="http://purl.org/dc/dcmitype/StillImage" />
        <dc:title></dc:title>
      </cc:Work>
    </rdf:RDF>
  </metadata>
  <defs
     id="defs10" />
  <sodipodi:namedview
     pagecolor="#ffffff"
     bordercolor="#666666"
     borderopacity="1"
     objecttolerance="10"
     gridtolerance="10"
     guidetolerance="10"
     inkscape:pageopacity="0"
     inkscape:pageshadow="2"
     inkscape:window-width="1920"
     inkscape:window-height="1026"
     id="namedview8"
     showgrid="false"
     inkscape:zoom="2.5158516"
     inkscape:cx="200.73195"
     inkscape:cy="18.923924"
     inkscape:window-x="1680"
     inkscape:window-y="54"
     inkscape:window-maximized="0"
     inkscape:current-layer="svg6"
     inkscape:pagecheckerboard="true" />
  <g
     inkscape:groupmode="layer"
     id="layer1"
     inkscape:label="Book"
     style="display:inline">
    <path
       style="fill:#ffffff;stroke:none"
       d="m 45,32 c 11.3003,-0.2332 22.6741,-3.1349 34,-3.9105 21.409,-1.4661 45.258,2.374 65,10.7824 8.811,3.7528 17.406,8.2192 24.961,14.1636 C 173.764,56.8147 177.518,62.3329 183,65 179.165,54.8682 171.386,46.7875 163,40.2114 141.698,23.5073 112.632,17 86,17 70.1071,17 51.2369,13.1959 45,32 m 145,32 c 4.546,-2.6993 7.783,-7.045 12,-10.2508 7.372,-5.605 15.538,-10.1468 24,-13.8873 20.379,-9.009 44.743,-13.2965 67,-11.7724 11.662,0.7986 23.34,3.814 35,3.9105 C 325.71,27.5141 322.077,21.7173 317.711,18.9884 310.156,14.2671 295.572,17 287,17 261.881,17 235.318,22.4921 214.015,36.3194 204.046,42.79 193.675,52.3914 190,64 M 9,59 c 7.8259,-0.3412 15.3936,-3.3693 23,-5.1188 11.5383,-2.6539 23.2079,-4.5885 35,-5.7114 30.4284,-2.8977 63.595,2.5424 90,18.2831 C 165.24,71.3653 171.278,78.5607 179,84 175.317,72.8913 165.193,63.7207 156,57.0147 128.19,36.7277 91.8913,35.7293 59,37.9753 49.6387,38.6146 40.1947,40.1291 31,42.0039 26.9791,42.8237 21.7149,43.3851 18.3256,45.8542 14.3111,48.7787 11.1722,54.6335 9,59 M 193,84 C 204.696,75.761 213.676,66.4093 227,60.3086 258.52,45.8762 295.381,45.1607 329,51.4599 340.539,53.622 351.591,57.3846 363,60 361.402,54.9953 357.579,48.003 352.985,45.1397 349.781,43.1425 344.651,42.7593 341,42.0031 332.064,40.1523 323.089,38.796 314,38 282.334,35.2268 249.007,36.8979 221,53.6042 209.837,60.2632 197.079,71.2215 193,84 M 67,60.4244 c -17.4926,2.2968 -34.8575,4.153 -52,8.7307 -4.2569,1.1367 -17.0736,7.2322 -8.6821,12.8171 2.97162,1.9778 7.53,0.6477 10.6821,-0.1026 7.6505,-1.8211 15.2747,-3.5761 23,-5.0664 24.9021,-4.8036 50.944,-6.9175 76,-2.1921 13.43,2.5327 27.604,7.4915 37.981,16.6898 5.211,4.6188 6.947,11.4081 11.537,16.5141 6.112,6.799 14.948,7.393 23.482,7.17 18.08,-0.472 19.789,-17.0357 32,-26.0606 15.741,-11.6336 34.985,-14.9451 54,-16.7546 22.097,-2.1029 45.424,2.247 67,6.6311 5.641,1.1463 19.435,7.5349 24.258,2.5957 C 374.957,72.4877 355.864,68.7898 351,67.8009 329.219,63.3724 308.279,60 286,60 c -24.694,0 -48.531,3.1394 -70,16.3202 -4.532,2.7823 -9.249,6.3079 -12.351,10.6837 C 198.413,94.3901 196.136,103.478 185,102.891 174.222,102.323 173.131,93.0413 167.582,86.0394 163.626,81.0477 157.481,77.0083 152,73.8727 132.417,62.6697 110.133,60 88,60 81.0496,60 73.9012,59.5182 67,60.4244 Z"
       id="path4"
       inkscape:connector-curvature="0" />
  </g>
</svg>
